<svg width="172" height="22" viewBox="0 0 172 22" fill="none" xmlns="http://www.w3.org/2000/svg">
<path d="M164.036 8.60445C162.034 8.60445 160.59 10.1347 160.447 12.2514H167.526C167.454 10.1061 166.082 8.60445 164.036 8.60445ZM167.54 16.785H170.873C170.415 19.6454 167.755 21.619 164.165 21.619C159.617 21.619 156.871 18.63 156.871 13.796C156.871 9.0049 159.646 5.84421 164.022 5.84421C168.327 5.84421 171.016 8.83328 171.016 13.4384V14.5969H160.418V14.8114C160.418 17.2427 161.905 18.8731 164.237 18.8731C165.896 18.8731 167.154 18.0436 167.54 16.785Z" fill="black"/>
<path d="M155.648 11.5649H152.287C152.001 9.94881 150.871 8.73316 148.969 8.73316C146.724 8.73316 145.279 10.621 145.279 13.7388C145.279 16.9138 146.738 18.7444 148.998 18.7444C150.8 18.7444 151.973 17.7147 152.302 15.9984H155.662C155.376 19.388 152.759 21.619 148.955 21.619C144.521 21.619 141.661 18.6586 141.661 13.7388C141.661 8.89048 144.521 5.84421 148.926 5.84421C152.931 5.84421 155.405 8.37562 155.648 11.5649Z" fill="black"/>
<path d="M133.087 21.3187V6.15885H136.505V8.80467H136.576C137.091 6.95975 138.421 5.90142 140.209 5.90142C140.667 5.90142 141.067 5.98723 141.325 6.04444V9.26233C141.024 9.14792 140.481 9.06211 139.88 9.06211C137.864 9.06211 136.648 10.3636 136.648 12.4945V21.3187H133.087Z" fill="black"/>
<path d="M124.098 8.60445C122.096 8.60445 120.651 10.1347 120.508 12.2514H127.588C127.516 10.1061 126.143 8.60445 124.098 8.60445ZM127.602 16.785H130.934C130.477 19.6454 127.816 21.619 124.227 21.619C119.679 21.619 116.933 18.63 116.933 13.796C116.933 9.0049 119.707 5.84421 124.084 5.84421C128.388 5.84421 131.077 8.83328 131.077 13.4384V14.5969H120.48V14.8114C120.48 17.2427 121.967 18.8731 124.298 18.8731C125.957 18.8731 127.216 18.0436 127.602 16.785Z" fill="black"/>
<path d="M93.1987 21.3187V6.15885H96.6168V8.79037H96.6883C97.3462 7.03126 98.948 5.87282 101.007 5.87282C103.153 5.87282 104.683 6.97405 105.241 8.91909H105.327C106.056 7.04556 107.858 5.87282 110.046 5.87282C113.035 5.87282 114.995 7.88936 114.995 10.9213V21.3187H111.433V11.7937C111.433 9.93451 110.461 8.87618 108.716 8.87618C107 8.87618 105.827 10.1347 105.827 11.9511V21.3187H102.366V11.6078C102.366 9.92021 101.336 8.87618 99.6774 8.87618C97.9612 8.87618 96.7598 10.2062 96.7598 12.0369V21.3187H93.1987Z" fill="black"/>
<path d="M68.8354 21.3187V6.15885H72.2535V8.79037H72.325C72.9829 7.03126 74.5847 5.87282 76.6442 5.87282C78.7894 5.87282 80.3197 6.97405 80.8775 8.91909H80.9633C81.6927 7.04556 83.4947 5.87282 85.6829 5.87282C88.6719 5.87282 90.6313 7.88936 90.6313 10.9213V21.3187H87.0701V11.7937C87.0701 9.93451 86.0976 8.87618 84.3528 8.87618C82.6366 8.87618 81.4639 10.1347 81.4639 11.9511V21.3187H78.0028V11.6078C78.0028 9.92021 76.9731 8.87618 75.3141 8.87618C73.5979 8.87618 72.3966 10.2062 72.3966 12.0369V21.3187H68.8354Z" fill="black"/>
<path d="M59.5033 21.619C55.0554 21.619 52.1665 18.6586 52.1665 13.7388C52.1665 8.84758 55.084 5.84421 59.5033 5.84421C63.9225 5.84421 66.84 8.83328 66.84 13.7388C66.84 18.6586 63.9511 21.619 59.5033 21.619ZM59.5033 18.8016C61.7629 18.8016 63.2217 16.971 63.2217 13.7388C63.2217 10.5209 61.7629 8.67596 59.5033 8.67596C57.2579 8.67596 55.7848 10.5209 55.7848 13.7388C55.7848 16.971 57.2436 18.8016 59.5033 18.8016Z" fill="black"/>
<path d="M41.7473 21.6619C35.855 21.6619 32.1509 17.6145 32.1509 10.9928C32.1509 4.41404 35.8836 0.338043 41.7473 0.338043C46.5384 0.338043 50.1854 3.32711 50.643 7.76065H47.0104C46.5241 5.17203 44.4218 3.47012 41.7473 3.47012C38.2005 3.47012 35.9265 6.38768 35.9265 10.9928C35.9265 15.6266 38.1862 18.5299 41.7617 18.5299C44.4933 18.5299 46.4526 17.0568 47.0247 14.5683H50.643C49.9995 18.9875 46.6242 21.6619 41.7473 21.6619Z" fill="black"/>
<path d="M29.612 14.5254H20.2158V11.3504H29.612V14.5254Z" fill="black"/>
<path d="M3.68985 0.681285V13.7102C3.68985 16.5276 5.42036 18.444 8.48093 18.444C11.5415 18.444 13.2863 16.5276 13.2863 13.7102V0.681285H16.9619V14.0391C16.9619 18.5442 13.7154 21.6619 8.48093 21.6619C3.2608 21.6619 0 18.5442 0 14.0391V0.681285H3.68985Z" fill="#0074EB"/>
</svg>
